<?xml version="1.0" encoding="UTF-8" standalone="no"?>
<!DOCTYPE svg PUBLIC "-//W3C//DTD SVG 1.1//EN"
 "http://www.w3.org/Graphics/SVG/1.1/DTD/svg11.dtd">
<!-- Generated by graphviz version 2.43.0 (0)
 -->
<!-- Title: %3 Pages: 1 -->
<svg width="1202pt" height="344pt"
 viewBox="0.00 0.00 1202.00 344.00" xmlns="http://www.w3.org/2000/svg" xmlns:xlink="http://www.w3.org/1999/xlink">
<g id="graph0" class="graph" transform="scale(1 1) rotate(0) translate(4 340)">
<title>%3</title>
<polygon fill="#f6f6f6" stroke="transparent" points="-4,4 -4,-340 1198,-340 1198,4 -4,4"/>
<g id="clust1" class="cluster">
<title>cluster_rancher&#45;ha.devops.misys.global.ad</title>
<polygon fill="#eceff1" stroke="black" points="8,-8 8,-328 1186,-328 1186,-8 8,-8"/>
<text text-anchor="middle" x="597" y="-312.8" font-family="Times,serif" font-size="14.00">rancher&#45;ha.devops.misys.global.ad</text>
</g>
<g id="clust2" class="cluster">
<title>cluster_namespace_fr&#45;standalone&#45;aandrieu</title>
<polygon fill="#e3f2fd" stroke="black" points="16,-16 16,-297 1178,-297 1178,-16 16,-16"/>
<text text-anchor="middle" x="597" y="-281.8" font-family="Times,serif" font-size="14.00">fr&#45;standalone&#45;aandrieu</text>
</g>
<!-- 05515dee&#45;b6af&#45;4e9a&#45;93f9&#45;7c59817eb784 -->
<g id="node1" class="node">
<title>05515dee&#45;b6af&#45;4e9a&#45;93f9&#45;7c59817eb784</title>
<polygon fill="#ffffff" stroke="#d3d3d3" points="692,-121 692,-167 1027,-167 1027,-121 692,-121"/>
<text text-anchor="start" x="700" y="-151.8" font-family="Times,serif" font-size="14.00">Pod</text>
<polyline fill="none" stroke="#d3d3d3" points="692,-144 1027,-144 "/>
<text text-anchor="start" x="700" y="-128.8" font-family="Times,serif" font-size="14.00">my&#45;develop&#45;helm&#45;sample&#45;6d69999d75&#45;2s95z</text>
</g>
<!-- 6e101a35&#45;22d8&#45;1d20&#45;9605&#45;981e8a0c3507 -->
<g id="node4" class="node">
<title>6e101a35&#45;22d8&#45;1d20&#45;9605&#45;981e8a0c3507</title>
<polygon fill="#ffffff" stroke="#d3d3d3" points="1063,-121 1063,-167 1170,-167 1170,-121 1063,-121"/>
<text text-anchor="start" x="1071" y="-151.8" font-family="Times,serif" font-size="14.00">Container</text>
<polyline fill="none" stroke="#d3d3d3" points="1063,-144 1170,-144 "/>
<text text-anchor="start" x="1071" y="-128.8" font-family="Times,serif" font-size="14.00">helm&#45;sample</text>
</g>
<!-- 05515dee&#45;b6af&#45;4e9a&#45;93f9&#45;7c59817eb784&#45;&gt;6e101a35&#45;22d8&#45;1d20&#45;9605&#45;981e8a0c3507 -->
<g id="edge1" class="edge">
<title>05515dee&#45;b6af&#45;4e9a&#45;93f9&#45;7c59817eb784&#45;&gt;6e101a35&#45;22d8&#45;1d20&#45;9605&#45;981e8a0c3507</title>
<path fill="none" stroke="#4284f3" d="M1027.03,-144C1035.93,-144 1044.56,-144 1052.7,-144"/>
<polygon fill="#4284f3" stroke="#4284f3" points="1052.74,-147.5 1062.74,-144 1052.74,-140.5 1052.74,-147.5"/>
</g>
<!-- 1eef2913&#45;ff7d&#45;c327&#45;b4b0&#45;397bbc7b98ce -->
<g id="node2" class="node">
<title>1eef2913&#45;ff7d&#45;c327&#45;b4b0&#45;397bbc7b98ce</title>
<polygon fill="#ffffff" stroke="#d3d3d3" points="1063,-186 1063,-232 1170,-232 1170,-186 1063,-186"/>
<text text-anchor="start" x="1071" y="-216.8" font-family="Times,serif" font-size="14.00">Container</text>
<polyline fill="none" stroke="#d3d3d3" points="1063,-209 1170,-209 "/>
<text text-anchor="start" x="1071" y="-193.8" font-family="Times,serif" font-size="14.00">helm&#45;sample</text>
</g>
<!-- 4fd760ec&#45;23ce&#45;45fb&#45;8f12&#45;6366d0217630 -->
<g id="node3" class="node">
<title>4fd760ec&#45;23ce&#45;45fb&#45;8f12&#45;6366d0217630</title>
<polygon fill="#ffffff" stroke="#d3d3d3" points="368,-154 368,-200 656,-200 656,-154 368,-154"/>
<text text-anchor="start" x="376" y="-184.8" font-family="Times,serif" font-size="14.00">ReplicaSet</text>
<polyline fill="none" stroke="#d3d3d3" points="368,-177 656,-177 "/>
<text text-anchor="start" x="376" y="-161.8" font-family="Times,serif" font-size="14.00">my&#45;develop&#45;helm&#45;sample&#45;6d69999d75</text>
</g>
<!-- 4fd760ec&#45;23ce&#45;45fb&#45;8f12&#45;6366d0217630&#45;&gt;05515dee&#45;b6af&#45;4e9a&#45;93f9&#45;7c59817eb784 -->
<g id="edge2" class="edge">
<title>4fd760ec&#45;23ce&#45;45fb&#45;8f12&#45;6366d0217630&#45;&gt;05515dee&#45;b6af&#45;4e9a&#45;93f9&#45;7c59817eb784</title>
<path fill="none" stroke="#4284f3" d="M656.02,-163.34C664.49,-162.53 673.07,-161.71 681.65,-160.89"/>
<polygon fill="#4284f3" stroke="#4284f3" points="682.11,-164.36 691.73,-159.93 681.44,-157.4 682.11,-164.36"/>
</g>
<!-- b7966294&#45;e735&#45;4903&#45;86d3&#45;22848f0d9442 -->
<g id="node7" class="node">
<title>b7966294&#45;e735&#45;4903&#45;86d3&#45;22848f0d9442</title>
<polygon fill="#ffffff" stroke="#d3d3d3" points="694,-186 694,-232 1025,-232 1025,-186 694,-186"/>
<text text-anchor="start" x="702" y="-216.8" font-family="Times,serif" font-size="14.00">Pod</text>
<polyline fill="none" stroke="#d3d3d3" points="694,-209 1025,-209 "/>
<text text-anchor="start" x="702" y="-193.8" font-family="Times,serif" font-size="14.00">my&#45;develop&#45;helm&#45;sample&#45;6d69999d75&#45;grrpr</text>
</g>
<!-- 4fd760ec&#45;23ce&#45;45fb&#45;8f12&#45;6366d0217630&#45;&gt;b7966294&#45;e735&#45;4903&#45;86d3&#45;22848f0d9442 -->
<g id="edge3" class="edge">
<title>4fd760ec&#45;23ce&#45;45fb&#45;8f12&#45;6366d0217630&#45;&gt;b7966294&#45;e735&#45;4903&#45;86d3&#45;22848f0d9442</title>
<path fill="none" stroke="#4284f3" d="M656.02,-190.25C665.22,-191.1 674.54,-191.96 683.87,-192.83"/>
<polygon fill="#4284f3" stroke="#4284f3" points="683.71,-196.33 693.99,-193.76 684.35,-189.36 683.71,-196.33"/>
</g>
<!-- 8dac35f7&#45;961a&#45;4896&#45;8a99&#45;64d64602211d -->
<g id="node5" class="node">
<title>8dac35f7&#45;961a&#45;4896&#45;8a99&#45;64d64602211d</title>
<polygon fill="#ffffff" stroke="#d3d3d3" points="24,-219 24,-265 332,-265 332,-219 24,-219"/>
<text text-anchor="start" x="32" y="-249.8" font-family="Times,serif" font-size="14.00">Pod</text>
<polyline fill="none" stroke="#d3d3d3" points="24,-242 332,-242 "/>
<text text-anchor="start" x="32" y="-226.8" font-family="Times,serif" font-size="14.00">my&#45;develop&#45;helm&#45;sample&#45;test&#45;connection</text>
</g>
<!-- ff336a6d&#45;28eb&#45;50e2&#45;5512&#45;87bc8b65efae -->
<g id="node11" class="node">
<title>ff336a6d&#45;28eb&#45;50e2&#45;5512&#45;87bc8b65efae</title>
<polygon fill="#ffffff" stroke="#d3d3d3" points="468.5,-219 468.5,-265 555.5,-265 555.5,-219 468.5,-219"/>
<text text-anchor="start" x="476.5" y="-249.8" font-family="Times,serif" font-size="14.00">Container</text>
<polyline fill="none" stroke="#d3d3d3" points="468.5,-242 555.5,-242 "/>
<text text-anchor="start" x="476.5" y="-226.8" font-family="Times,serif" font-size="14.00">wget</text>
</g>
<!-- 8dac35f7&#45;961a&#45;4896&#45;8a99&#45;64d64602211d&#45;&gt;ff336a6d&#45;28eb&#45;50e2&#45;5512&#45;87bc8b65efae -->
<g id="edge4" class="edge">
<title>8dac35f7&#45;961a&#45;4896&#45;8a99&#45;64d64602211d&#45;&gt;ff336a6d&#45;28eb&#45;50e2&#45;5512&#45;87bc8b65efae</title>
<path fill="none" stroke="#4284f3" d="M332.37,-242C377.48,-242 423.85,-242 458.03,-242"/>
<polygon fill="#4284f3" stroke="#4284f3" points="458.24,-245.5 468.24,-242 458.24,-238.5 458.24,-245.5"/>
</g>
<!-- 9459e225&#45;09b3&#45;4e1d&#45;aeaa&#45;e601bbda726e -->
<g id="node6" class="node">
<title>9459e225&#45;09b3&#45;4e1d&#45;aeaa&#45;e601bbda726e</title>
<polygon fill="#ffffff" stroke="#d3d3d3" points="81,-154 81,-200 275,-200 275,-154 81,-154"/>
<text text-anchor="start" x="89" y="-184.8" font-family="Times,serif" font-size="14.00">Deployment</text>
<polyline fill="none" stroke="#d3d3d3" points="81,-177 275,-177 "/>
<text text-anchor="start" x="89" y="-161.8" font-family="Times,serif" font-size="14.00">my&#45;develop&#45;helm&#45;sample</text>
</g>
<!-- 9459e225&#45;09b3&#45;4e1d&#45;aeaa&#45;e601bbda726e&#45;&gt;4fd760ec&#45;23ce&#45;45fb&#45;8f12&#45;6366d0217630 -->
<g id="edge5" class="edge">
<title>9459e225&#45;09b3&#45;4e1d&#45;aeaa&#45;e601bbda726e&#45;&gt;4fd760ec&#45;23ce&#45;45fb&#45;8f12&#45;6366d0217630</title>
<path fill="none" stroke="#4284f3" d="M275.03,-177C300.87,-177 329.48,-177 357.6,-177"/>
<polygon fill="#4284f3" stroke="#4284f3" points="357.93,-180.5 367.93,-177 357.93,-173.5 357.93,-180.5"/>
</g>
<!-- b7966294&#45;e735&#45;4903&#45;86d3&#45;22848f0d9442&#45;&gt;1eef2913&#45;ff7d&#45;c327&#45;b4b0&#45;397bbc7b98ce -->
<g id="edge6" class="edge">
<title>b7966294&#45;e735&#45;4903&#45;86d3&#45;22848f0d9442&#45;&gt;1eef2913&#45;ff7d&#45;c327&#45;b4b0&#45;397bbc7b98ce</title>
<path fill="none" stroke="#4284f3" d="M1025.24,-209C1034.66,-209 1043.79,-209 1052.39,-209"/>
<polygon fill="#4284f3" stroke="#4284f3" points="1052.59,-212.5 1062.59,-209 1052.59,-205.5 1052.59,-212.5"/>
</g>
<!-- c79628f3&#45;43a8&#45;4533&#45;9c62&#45;e073fbd5dc80 -->
<g id="node8" class="node">
<title>c79628f3&#45;43a8&#45;4533&#45;9c62&#45;e073fbd5dc80</title>
<polygon fill="#ffffff" stroke="#d3d3d3" points="54,-89 54,-135 302,-135 302,-89 54,-89"/>
<text text-anchor="start" x="62" y="-119.8" font-family="Times,serif" font-size="14.00">Pod</text>
<polyline fill="none" stroke="#d3d3d3" points="54,-112 302,-112 "/>
<text text-anchor="start" x="62" y="-96.8" font-family="Times,serif" font-size="14.00">my&#45;helm&#45;sample&#45;test&#45;connection</text>
</g>
<!-- d0e76c4d&#45;647b&#45;6a59&#45;f65c&#45;cfeb52189a74 -->
<g id="node9" class="node">
<title>d0e76c4d&#45;647b&#45;6a59&#45;f65c&#45;cfeb52189a74</title>
<polygon fill="#ffffff" stroke="#d3d3d3" points="468.5,-89 468.5,-135 555.5,-135 555.5,-89 468.5,-89"/>
<text text-anchor="start" x="476.5" y="-119.8" font-family="Times,serif" font-size="14.00">Container</text>
<polyline fill="none" stroke="#d3d3d3" points="468.5,-112 555.5,-112 "/>
<text text-anchor="start" x="476.5" y="-96.8" font-family="Times,serif" font-size="14.00">wget</text>
</g>
<!-- c79628f3&#45;43a8&#45;4533&#45;9c62&#45;e073fbd5dc80&#45;&gt;d0e76c4d&#45;647b&#45;6a59&#45;f65c&#45;cfeb52189a74 -->
<g id="edge7" class="edge">
<title>c79628f3&#45;43a8&#45;4533&#45;9c62&#45;e073fbd5dc80&#45;&gt;d0e76c4d&#45;647b&#45;6a59&#45;f65c&#45;cfeb52189a74</title>
<path fill="none" stroke="#4284f3" d="M302.15,-112C355.91,-112 416.11,-112 458.01,-112"/>
<polygon fill="#4284f3" stroke="#4284f3" points="458.25,-115.5 468.25,-112 458.25,-108.5 458.25,-115.5"/>
</g>
<!-- d2d37f62&#45;edb3&#45;46c7&#45;8ae2&#45;86563ce0e24a -->
<g id="node10" class="node">
<title>d2d37f62&#45;edb3&#45;46c7&#45;8ae2&#45;86563ce0e24a</title>
<polygon fill="#ffffff" stroke="#d3d3d3" points="81,-24 81,-70 275,-70 275,-24 81,-24"/>
<text text-anchor="start" x="89" y="-54.8" font-family="Times,serif" font-size="14.00">Service</text>
<polyline fill="none" stroke="#d3d3d3" points="81,-47 275,-47 "/>
<text text-anchor="start" x="89" y="-31.8" font-family="Times,serif" font-size="14.00">my&#45;develop&#45;helm&#45;sample</text>
</g>
</g>
</svg>
